<svg width="600" height="600" viewBox="0 0 600 600" fill="none" xmlns="http://www.w3.org/2000/svg">
<circle cx="300" cy="300" r="300" fill="#4A7C9E"/>
<path d="M413.117 384.657C407.118 384.657 402.833 383.086 400.263 379.943C397.692 376.516 396.406 372.231 396.406 367.089C396.406 359.377 399.12 350.665 404.547 340.953C409.975 330.955 416.973 320.529 425.542 309.674C434.397 298.819 443.538 288.108 452.965 277.539C462.677 266.97 471.817 257.258 480.387 248.403C476.102 248.403 471.389 249.545 466.247 251.83C461.391 254.116 456.392 256.829 451.251 259.971C443.253 265.399 434.397 272.54 424.685 281.395C415.259 290.25 405.833 299.819 396.406 310.103C386.98 320.1 378.125 329.812 369.841 339.239C365.271 346.38 361.129 353.093 357.416 359.377C353.702 365.661 351.131 371.088 349.703 375.659C343.99 373.374 341.134 369.232 341.134 363.233C341.134 358.663 342.419 353.378 344.99 347.38C350.132 335.954 356.844 324.528 365.128 313.102C373.412 301.676 382.267 290.536 391.693 279.681C401.405 268.541 410.403 257.972 418.687 247.974C413.545 247.974 407.118 250.259 399.406 254.83C391.693 259.114 383.981 264.113 376.268 269.826C368.841 275.539 362.843 280.824 358.273 285.68C352.274 291.964 345.133 299.819 336.849 309.246C328.851 318.672 320.853 328.098 312.855 337.525C305.142 346.665 298.858 354.521 294.002 361.091C288.86 367.946 285.432 373.231 283.719 376.944C281.719 380.658 280.434 382.943 279.862 383.8C275.292 383.8 273.007 381.086 273.007 375.659C273.007 369.946 274.864 363.09 278.577 355.092C282.005 347.094 285.004 340.81 287.575 336.239C295.002 323.671 303.428 310.531 312.855 296.82C322.567 282.823 331.564 270.54 339.848 259.971C344.133 254.258 348.703 250.117 353.559 247.546C358.415 244.689 362.557 242.975 365.985 242.404C369.413 241.547 371.127 241.119 371.127 241.119C369.413 243.689 365.842 248.974 360.415 256.972C355.273 264.97 349.275 274.397 342.419 285.251C335.564 295.82 328.565 306.818 321.424 318.244C332.85 304.247 344.847 290.821 357.416 277.967C369.984 265.113 381.981 255.401 393.407 248.831C402.833 243.689 411.689 241.119 419.972 241.119C426.542 241.119 429.827 243.404 429.827 247.974C429.827 252.259 427.542 257.401 422.972 263.399C420.972 265.97 418.258 269.683 414.831 274.539C411.403 279.395 408.261 283.823 405.404 287.822C402.833 291.821 401.548 293.821 401.548 293.821L398.977 297.677C408.118 288.251 417.401 279.395 426.828 271.112C436.254 262.828 445.395 255.829 454.25 250.117C457.963 247.546 461.82 245.403 465.819 243.689C469.818 241.976 473.96 241.119 478.244 241.119C485.957 241.119 489.813 244.118 489.813 250.117C489.813 254.687 487.099 260.114 481.672 266.398C475.102 274.111 467.961 282.68 460.249 292.107C452.536 301.533 445.109 311.102 437.968 320.814C431.113 330.526 425.4 339.524 420.829 347.808C416.544 356.092 414.402 362.805 414.402 367.946C414.402 370.803 415.116 372.945 416.545 374.373C418.258 375.516 419.687 376.087 420.829 376.087C425.114 376.087 429.827 374.373 434.969 370.946C440.396 367.518 445.538 363.519 450.394 358.948C455.535 354.092 459.963 349.522 463.676 345.237C467.675 340.953 470.246 338.096 471.389 336.668C472.531 336.668 473.103 337.525 473.103 339.239C473.103 341.809 472.531 343.809 471.389 345.237C467.39 349.522 462.105 354.806 455.535 361.091C448.965 367.375 441.967 372.945 434.54 377.801C427.113 382.371 419.972 384.657 413.117 384.657Z" fill="#F7F4EE"/>
<path d="M180.545 453.643C165.977 453.643 152.838 449.358 141.126 440.788C129.7 432.219 122.416 419.793 119.274 403.511C101.85 398.655 89.2812 389.8 81.5687 376.946C73.8562 363.806 70 348.667 70 331.528C70 315.246 72.9993 298.393 78.9979 280.969C85.2821 263.544 93.9944 247.405 105.135 232.551C116.275 217.412 129.557 205.272 144.982 196.131C160.407 186.705 177.403 181.992 195.97 181.992C207.682 181.992 216.965 184.848 223.821 190.561C230.962 195.988 236.104 203.13 239.246 211.985C242.388 220.554 243.959 229.409 243.959 238.55C243.959 241.406 243.816 244.263 243.531 247.119C243.245 249.69 242.817 252.404 242.245 255.26C245.673 253.546 249.101 251.832 252.529 250.119C256.242 248.405 259.955 246.834 263.669 245.405L269.667 242.835C274.523 231.123 279.665 219.697 285.092 208.557C290.52 197.131 296.661 186.562 303.517 176.85C309.229 168.852 316.085 161.711 324.083 155.426C332.367 149.142 341.365 146 351.077 146C359.932 146 366.216 148 369.929 151.999C373.643 155.712 375.5 160.425 375.5 166.138C375.5 174.136 372.786 181.706 367.359 188.847C362.217 195.988 355.504 202.701 347.221 208.985C338.937 214.984 329.939 220.697 320.227 226.124C310.801 231.266 301.66 235.836 292.805 239.835C287.092 256.974 281.093 274.256 274.809 291.68C268.81 308.819 261.384 325.101 252.529 340.526C243.673 355.665 231.962 369.091 217.394 380.802C206.539 389.658 194.685 396.227 181.831 400.512C169.262 404.797 157.122 406.939 145.411 406.939C143.411 406.939 141.412 406.796 139.412 406.511C137.698 406.511 135.984 406.368 134.271 406.082C136.556 417.508 141.412 427.22 148.839 435.218C156.265 443.502 167.548 447.644 182.688 447.644C187.258 447.644 191.543 446.93 195.542 445.502C199.541 444.359 204.111 442.074 209.253 438.646C209.253 438.646 209.253 438.503 209.253 438.218C209.539 438.218 209.824 438.218 210.11 438.218C210.967 438.218 211.395 439.075 211.395 440.788C211.395 442.788 209.681 444.788 206.254 446.787C203.112 448.787 199.113 450.358 194.256 451.5C189.4 452.929 184.83 453.643 180.545 453.643ZM295.804 231.266C306.944 225.839 317.942 219.84 328.796 213.27C339.651 206.415 348.649 199.13 355.79 191.418C362.931 183.42 366.502 175.136 366.502 166.567C366.502 162.568 365.502 159.14 363.502 156.283C361.789 153.141 358.504 151.57 353.648 151.57C348.22 151.57 342.936 153.427 337.794 157.14C332.938 160.568 328.653 164.71 324.94 169.566C321.227 174.422 318.085 179.135 315.514 183.706C311.8 190.847 308.23 198.559 304.802 206.843C301.66 214.841 298.661 222.982 295.804 231.266ZM118.417 397.084C118.132 395.656 117.989 394.228 117.989 392.8C117.989 391.371 117.989 390.086 117.989 388.943C117.989 370.662 122.988 353.809 132.985 338.384C142.983 322.959 156.408 308.819 173.261 295.965C190.4 283.111 209.396 271.399 230.248 260.83C231.962 254.261 232.819 247.548 232.819 240.692C232.819 232.408 231.676 224.267 229.391 216.269C227.106 208.271 223.107 201.558 217.394 196.131C211.967 190.704 204.397 187.99 194.685 187.99C179.831 187.99 165.835 192.703 152.695 202.13C139.841 211.556 128.558 223.839 118.846 238.978C109.134 253.832 101.421 269.971 95.7082 287.396C90.2809 304.535 87.5673 320.816 87.5673 336.241C87.5673 350.809 89.8525 363.664 94.4228 374.804C98.9932 385.658 106.991 393.085 118.417 397.084ZM133.414 399.655H135.128C144.554 399.655 155.266 396.942 167.263 391.514C179.546 386.087 192.543 376.232 206.254 361.95C220.536 347.096 231.962 330.1 240.531 310.962C249.386 291.538 257.813 271.828 265.811 251.832L239.674 265.544C234.247 282.968 224.964 299.821 211.824 316.103C198.97 332.385 185.116 345.953 170.262 356.808C168.263 358.236 166.406 358.95 164.692 358.95C163.264 358.95 162.55 358.522 162.55 357.665C162.55 356.808 162.835 356.094 163.407 355.523C175.975 346.096 188.401 334.099 200.684 319.531C212.966 304.963 221.821 289.252 227.249 272.399C210.967 281.825 195.685 292.68 181.402 304.963C167.12 316.96 155.408 330.1 146.268 344.382C137.413 358.379 132.985 373.376 132.985 389.372C132.985 391.086 132.985 392.8 132.985 394.514C132.985 396.227 133.128 397.941 133.414 399.655Z" fill="#F7F4EE"/>
<path d="M531 354.28C531 362.397 522.901 368.978 512.91 368.978C502.919 368.978 494.82 362.397 494.82 354.28C494.82 346.163 502.919 339.582 512.91 339.582C522.901 339.582 531 346.163 531 354.28Z" fill="#F7F4EE"/>
</svg>
