<svg width="600" height="600" viewBox="0 0 600 600" fill="none" xmlns="http://www.w3.org/2000/svg">
<circle cx="300" cy="300" r="300" fill="#25476D"/>
<path d="M370.025 352.17C366.3 352.17 363.64 351.195 362.044 349.244C360.448 347.116 359.65 344.456 359.65 341.264C359.65 336.475 361.335 331.066 364.704 325.037C368.074 318.83 372.419 312.356 377.739 305.617C383.237 298.878 388.912 292.228 394.764 285.666C400.794 279.104 406.469 273.075 411.789 267.577C409.129 267.577 406.203 268.286 403.011 269.705C399.996 271.124 396.892 272.809 393.7 274.759C388.734 278.129 383.237 282.563 377.207 288.06C371.355 293.558 365.502 299.499 359.65 305.883C353.798 312.09 348.3 318.12 343.157 323.973C340.319 328.406 337.748 332.574 335.442 336.475C333.137 340.377 331.541 343.746 330.654 346.584C327.107 345.165 325.334 342.594 325.334 338.869C325.334 336.032 326.132 332.751 327.728 329.027C330.92 321.933 335.088 314.839 340.231 307.745C345.374 300.652 350.871 293.735 356.724 286.996C362.753 280.08 368.34 273.518 373.483 267.311C370.291 267.311 366.3 268.73 361.512 271.567C356.724 274.227 351.935 277.331 347.147 280.878C342.536 284.425 338.812 287.706 335.974 290.72C332.25 294.622 327.817 299.499 322.674 305.351C317.708 311.204 312.742 317.056 307.777 322.908C302.988 328.583 299.087 333.46 296.072 337.539C292.88 341.796 290.752 345.077 289.688 347.382C288.446 349.687 287.648 351.106 287.293 351.638C284.456 351.638 283.037 349.953 283.037 346.584C283.037 343.037 284.19 338.781 286.495 333.815C288.623 328.849 290.486 324.948 292.082 322.11C296.693 314.307 301.924 306.149 307.777 297.637C313.806 288.947 319.393 281.321 324.536 274.759C327.196 271.213 330.033 268.641 333.048 267.045C336.063 265.271 338.635 264.207 340.763 263.853C342.891 263.321 343.955 263.055 343.955 263.055C342.891 264.651 340.674 267.932 337.305 272.897C334.112 277.863 330.388 283.715 326.132 290.454C321.876 297.016 317.531 303.844 313.097 310.938C320.191 302.248 327.639 293.913 335.442 285.932C343.246 277.952 350.694 271.922 357.788 267.843C363.64 264.651 369.138 263.055 374.281 263.055C378.36 263.055 380.399 264.473 380.399 267.311C380.399 269.971 378.98 273.163 376.143 276.888C374.902 278.484 373.217 280.789 371.089 283.804C368.961 286.819 367.01 289.568 365.236 292.051C363.64 294.533 362.842 295.775 362.842 295.775L361.246 298.169C366.921 292.317 372.685 286.819 378.537 281.676C384.389 276.533 390.065 272.188 395.562 268.641C397.868 267.045 400.262 265.715 402.745 264.651C405.227 263.587 407.799 263.055 410.459 263.055C415.247 263.055 417.642 264.917 417.642 268.641C417.642 271.479 415.957 274.848 412.587 278.75C408.508 283.538 404.075 288.858 399.286 294.711C394.498 300.563 389.887 306.504 385.454 312.534C381.197 318.564 377.65 324.15 374.813 329.293C372.153 334.436 370.823 338.603 370.823 341.796C370.823 343.569 371.266 344.899 372.153 345.786C373.217 346.495 374.103 346.85 374.813 346.85C377.473 346.85 380.399 345.786 383.591 343.658C386.961 341.53 390.153 339.047 393.168 336.209C396.36 333.194 399.109 330.357 401.415 327.697C403.897 325.037 405.493 323.263 406.203 322.376C406.912 322.376 407.267 322.908 407.267 323.973C407.267 325.569 406.912 326.81 406.203 327.697C403.72 330.357 400.439 333.638 396.36 337.539C392.281 341.441 387.936 344.899 383.325 347.914C378.714 350.752 374.281 352.17 370.025 352.17Z" fill="#F7F4EE"/>
<path d="M225.632 395C216.588 395 208.43 392.34 201.159 387.02C194.065 381.699 189.543 373.985 187.592 363.876C176.774 360.861 168.971 355.364 164.182 347.383C159.394 339.225 157 329.826 157 319.185C157 309.077 158.862 298.613 162.586 287.795C166.488 276.977 171.897 266.957 178.813 257.735C185.73 248.336 193.976 240.799 203.553 235.124C213.13 229.272 223.682 226.345 235.209 226.345C242.48 226.345 248.244 228.119 252.5 231.666C256.934 235.035 260.126 239.469 262.077 244.967C264.027 250.287 265.003 255.785 265.003 261.46C265.003 263.233 264.914 265.007 264.737 266.78C264.559 268.376 264.293 270.061 263.939 271.834C266.067 270.77 268.195 269.706 270.323 268.642C272.629 267.578 274.934 266.603 277.24 265.716L280.964 264.12C283.979 256.849 287.171 249.755 290.54 242.838C293.91 235.745 297.723 229.183 301.979 223.153C305.526 218.188 309.782 213.754 314.748 209.852C319.891 205.951 325.477 204 331.507 204C337.005 204 340.906 205.241 343.212 207.724C345.517 210.03 346.67 212.956 346.67 216.503C346.67 221.468 344.985 226.168 341.616 230.602C338.423 235.035 334.256 239.203 329.113 243.104C323.97 246.829 318.383 250.376 312.354 253.745C306.501 256.937 300.826 259.775 295.329 262.258C291.782 272.898 288.058 283.628 284.156 294.446C280.432 305.086 275.821 315.195 270.323 324.772C264.825 334.171 257.554 342.506 248.51 349.777C241.771 355.275 234.411 359.354 226.43 362.014C218.627 364.674 211.09 366.004 203.819 366.004C202.578 366.004 201.336 365.916 200.095 365.738C199.031 365.738 197.967 365.65 196.903 365.472C198.321 372.566 201.336 378.596 205.947 383.561C210.558 388.704 217.563 391.276 226.962 391.276C229.8 391.276 232.46 390.832 234.943 389.946C237.426 389.236 240.263 387.818 243.455 385.689C243.455 385.689 243.455 385.601 243.455 385.423C243.633 385.423 243.81 385.423 243.987 385.423C244.52 385.423 244.786 385.955 244.786 387.02C244.786 388.261 243.721 389.502 241.593 390.744C239.643 391.985 237.16 392.961 234.145 393.67C231.13 394.557 228.292 395 225.632 395ZM297.191 256.937C304.107 253.568 310.935 249.844 317.674 245.765C324.413 241.508 330 236.986 334.433 232.198C338.867 227.232 341.084 222.089 341.084 216.769C341.084 214.286 340.463 212.158 339.221 210.384C338.157 208.434 336.118 207.458 333.103 207.458C329.734 207.458 326.453 208.611 323.26 210.916C320.246 213.045 317.585 215.616 315.28 218.631C312.974 221.646 311.024 224.572 309.428 227.409C307.122 231.843 304.905 236.631 302.777 241.774C300.826 246.74 298.964 251.794 297.191 256.937ZM187.06 359.886C186.883 358.999 186.794 358.112 186.794 357.226C186.794 356.339 186.794 355.541 186.794 354.831C186.794 343.481 189.897 333.018 196.104 323.442C202.312 313.865 210.647 305.086 221.11 297.106C231.751 289.125 243.544 281.854 256.49 275.292C257.554 271.214 258.086 267.046 258.086 262.79C258.086 257.647 257.377 252.592 255.958 247.627C254.539 242.661 252.057 238.494 248.51 235.124C245.14 231.754 240.441 230.07 234.411 230.07C225.189 230.07 216.499 232.996 208.341 238.848C200.361 244.701 193.356 252.326 187.326 261.726C181.296 270.948 176.508 280.968 172.961 291.786C169.591 302.426 167.907 312.535 167.907 322.111C167.907 331.156 169.325 339.137 172.163 346.053C175 352.792 179.966 357.403 187.06 359.886ZM196.37 361.482H197.435C203.287 361.482 209.937 359.797 217.386 356.428C225.012 353.058 233.081 346.94 241.593 338.072C250.461 328.851 257.554 318.299 262.875 306.416C268.372 294.357 273.604 282.12 278.57 269.706L262.343 278.219C258.973 289.037 253.209 299.5 245.052 309.609C237.071 319.717 228.47 328.141 219.248 334.88C218.007 335.767 216.854 336.21 215.79 336.21C214.903 336.21 214.46 335.944 214.46 335.412C214.46 334.88 214.637 334.437 214.992 334.082C222.795 328.23 230.509 320.781 238.135 311.737C245.761 302.692 251.259 292.938 254.628 282.475C244.52 288.327 235.032 295.066 226.164 302.692C217.297 310.141 210.026 318.299 204.351 327.166C198.853 335.856 196.104 345.166 196.104 355.098C196.104 356.162 196.104 357.226 196.104 358.29C196.104 359.354 196.193 360.418 196.37 361.482Z" fill="#F7F4EE"/>
<path d="M443.212 333.311C443.212 338.35 438.184 342.436 431.981 342.436C425.778 342.436 420.75 338.35 420.75 333.311C420.75 328.271 425.778 324.186 431.981 324.186C438.184 324.186 443.212 328.271 443.212 333.311Z" fill="#F7F4EE"/>
</svg>
