<svg width="186" height="186" viewBox="0 0 186 186" fill="none" xmlns="http://www.w3.org/2000/svg">
<circle cx="93" cy="93" r="93" fill="#E5E2E2"/>
<path d="M50.2727 77.5682V69.4545H88.5V77.5682H74.25V116H64.5227V77.5682H50.2727ZM123.545 69.4545H133.386V99.6818C133.386 103.076 132.576 106.045 130.955 108.591C129.348 111.136 127.098 113.121 124.205 114.545C121.311 115.955 117.939 116.659 114.091 116.659C110.227 116.659 106.848 115.955 103.955 114.545C101.061 113.121 98.8106 111.136 97.2045 108.591C95.5985 106.045 94.7955 103.076 94.7955 99.6818V69.4545H104.636V98.8409C104.636 100.614 105.023 102.189 105.795 103.568C106.583 104.947 107.689 106.03 109.114 106.818C110.538 107.606 112.197 108 114.091 108C116 108 117.659 107.606 119.068 106.818C120.492 106.03 121.591 104.947 122.364 103.568C123.152 102.189 123.545 100.614 123.545 98.8409V69.4545ZM110.614 64.9545L115.432 54.6136H124.386L117.455 64.9545H110.614Z" fill="#A6A6A6"/>
</svg>
